<svg xmlns="http://www.w3.org/2000/svg" viewBox="0 0 1200 630" role="img" aria-label="Teddy Yee portfolio preview">
  <defs>
    <linearGradient id="bg" x1="80" y1="40" x2="1120" y2="590" gradientUnits="userSpaceOnUse">
      <stop offset="0" stop-color="#0ea5e9"/>
      <stop offset="0.38" stop-color="#0d2d4a"/>
      <stop offset="1" stop-color="#06121f"/>
    </linearGradient>
    <linearGradient id="panel" x1="682" y1="116" x2="1080" y2="514" gradientUnits="userSpaceOnUse">
      <stop offset="0" stop-color="#123b61"/>
      <stop offset="1" stop-color="#071827"/>
    </linearGradient>
    <filter id="shadow" x="-20%" y="-20%" width="140%" height="140%">
      <feDropShadow dx="0" dy="24" stdDeviation="24" flood-color="#020617" flood-opacity="0.42"/>
    </filter>
  </defs>
  <rect width="1200" height="630" fill="url(#bg)"/>
  <path d="M70 134H1130M70 254H1130M70 374H1130M70 494H1130M190 40V590M310 40V590M430 40V590M550 40V590M670 40V590M790 40V590M910 40V590M1030 40V590" stroke="#8bd3ff" stroke-opacity="0.08" stroke-width="2"/>
  <circle cx="160" cy="118" r="86" fill="#67e8f9" opacity="0.12"/>
  <circle cx="1042" cy="520" r="124" fill="#22c55e" opacity="0.10"/>
  <text x="96" y="220" font-family="Geist, Inter, Arial, sans-serif" font-size="84" font-weight="800" fill="#f8fafc">Teddy Yee</text>
  <text x="100" y="296" font-family="Geist, Inter, Arial, sans-serif" font-size="38" font-weight="650" fill="#93c5fd">Full Stack Developer</text>
  <rect x="98" y="432" width="410" height="64" rx="18" fill="#071827" stroke="#38bdf8" stroke-opacity="0.55" stroke-width="2"/>
  <text x="130" y="474" font-family="Geist Mono, Menlo, Consolas, monospace" font-size="26" font-weight="700" fill="#7dd3fc">&lt;portfolio /&gt;</text>
  <rect x="688" y="110" width="390" height="410" rx="44" fill="url(#panel)" stroke="#67e8f9" stroke-opacity="0.34" stroke-width="4" filter="url(#shadow)"/>
  <rect x="688" y="110" width="390" height="78" rx="44" fill="#0b243b"/>
  <path d="M688 166H1078" stroke="#67e8f9" stroke-opacity="0.22" stroke-width="4"/>
  <circle cx="744" cy="149" r="13" fill="#38bdf8"/>
  <circle cx="788" cy="149" r="13" fill="#22c55e"/>
  <circle cx="832" cy="149" r="13" fill="#f97316"/>
  <path d="M818 374L750 316L818 258" fill="none" stroke="#7dd3fc" stroke-width="34" stroke-linecap="round" stroke-linejoin="round"/>
  <path d="M948 258L1016 316L948 374" fill="none" stroke="#7dd3fc" stroke-width="34" stroke-linecap="round" stroke-linejoin="round"/>
  <path d="M914 230L852 402" fill="none" stroke="#34d399" stroke-width="36" stroke-linecap="round"/>
</svg>
